<svg xmlns="http://www.w3.org/2000/svg" xmlns:xlink="http://www.w3.org/1999/xlink" width="1500" zoomAndPan="magnify" viewBox="0 0 1125 149.999998" height="200" preserveAspectRatio="xMidYMid meet" version="1.0"><defs><g/><clipPath id="eb125999ee"><path d="M 963.058594 7.574219 L 1125 7.574219 L 1125 142.574219 L 963.058594 142.574219 Z M 963.058594 7.574219 " clip-rule="nonzero"/></clipPath></defs><g fill="#29cb41" fill-opacity="1"><g transform="translate(21.764666, 115.50736)"><g><path d="M 18.671875 -24.015625 L 15.71875 0 L 3.609375 0 L 11.921875 -67.84375 L 32.5625 -67.84375 C 36.40625 -67.84375 39.707031 -67.378906 42.46875 -66.453125 C 45.238281 -65.523438 47.515625 -64.234375 49.296875 -62.578125 C 51.085938 -60.921875 52.410156 -58.957031 53.265625 -56.6875 C 54.128906 -54.425781 54.5625 -51.9375 54.5625 -49.21875 C 54.5625 -45.582031 53.988281 -42.222656 52.84375 -39.140625 C 51.707031 -36.066406 49.992188 -33.410156 47.703125 -31.171875 C 45.421875 -28.929688 42.566406 -27.175781 39.140625 -25.90625 C 35.722656 -24.644531 31.726562 -24.015625 27.15625 -24.015625 Z M 22.9375 -58.453125 L 19.84375 -33.5 L 28.390625 -33.5 C 30.765625 -33.5 32.828125 -33.859375 34.578125 -34.578125 C 36.328125 -35.296875 37.78125 -36.300781 38.9375 -37.59375 C 40.09375 -38.894531 40.941406 -40.4375 41.484375 -42.21875 C 42.035156 -44 42.3125 -45.972656 42.3125 -48.140625 C 42.3125 -49.671875 42.09375 -51.078125 41.65625 -52.359375 C 41.21875 -53.640625 40.546875 -54.722656 39.640625 -55.609375 C 38.734375 -56.503906 37.597656 -57.203125 36.234375 -57.703125 C 34.878906 -58.203125 33.265625 -58.453125 31.390625 -58.453125 Z M 22.9375 -58.453125 "/></g></g></g><g fill="#29cb41" fill-opacity="1"><g transform="translate(79.988044, 115.50736)"><g><path d="M 58.03125 0 L 48.609375 0 C 47.546875 0 46.695312 -0.25 46.0625 -0.75 C 45.4375 -1.25 45.046875 -1.921875 44.890625 -2.765625 L 42.078125 -16.9375 L 16.796875 -16.9375 L 10.515625 -2.765625 C 10.171875 -2.046875 9.601562 -1.40625 8.8125 -0.84375 C 8.03125 -0.28125 7.15625 0 6.1875 0 L -3.375 0 L 29.421875 -67.84375 L 41.84375 -67.84375 Z M 20.59375 -25.515625 L 40.34375 -25.515625 L 35.75 -48.75 C 35.5 -49.875 35.25 -51.0625 35 -52.3125 C 34.75 -53.5625 34.515625 -54.96875 34.296875 -56.53125 C 33.703125 -54.96875 33.113281 -53.519531 32.53125 -52.1875 C 31.957031 -50.863281 31.421875 -49.703125 30.921875 -48.703125 Z M 20.59375 -25.515625 "/></g></g></g><g fill="#29cb41" fill-opacity="1"><g transform="translate(144.216675, 115.50736)"><g><path d="M 34.953125 -26.40625 L 31.671875 0 L 19.46875 0 L 22.75 -26.453125 L 5.109375 -67.84375 L 15.953125 -67.84375 C 17.015625 -67.84375 17.828125 -67.582031 18.390625 -67.0625 C 18.953125 -66.550781 19.390625 -65.882812 19.703125 -65.0625 L 28.484375 -41.609375 C 28.921875 -40.484375 29.269531 -39.378906 29.53125 -38.296875 C 29.800781 -37.222656 30.03125 -36.171875 30.21875 -35.140625 C 30.71875 -36.171875 31.253906 -37.21875 31.828125 -38.28125 C 32.410156 -39.34375 33.0625 -40.453125 33.78125 -41.609375 L 48.375 -65.0625 C 48.8125 -65.789062 49.378906 -66.4375 50.078125 -67 C 50.785156 -67.5625 51.65625 -67.84375 52.6875 -67.84375 L 62.765625 -67.84375 Z M 34.953125 -26.40625 "/></g></g></g><g fill="#29cb41" fill-opacity="1"><g transform="translate(205.114265, 115.50736)"><g><path d="M 38.703125 -27.109375 C 38.984375 -26.296875 39.234375 -25.46875 39.453125 -24.625 C 39.671875 -23.78125 39.890625 -22.921875 40.109375 -22.046875 C 40.484375 -22.921875 40.890625 -23.78125 41.328125 -24.625 C 41.765625 -25.46875 42.234375 -26.296875 42.734375 -27.109375 L 66.296875 -65.875 C 66.578125 -66.34375 66.863281 -66.707031 67.15625 -66.96875 C 67.457031 -67.238281 67.769531 -67.4375 68.09375 -67.5625 C 68.425781 -67.6875 68.796875 -67.765625 69.203125 -67.796875 C 69.609375 -67.828125 70.078125 -67.84375 70.609375 -67.84375 L 79.84375 -67.84375 L 71.5 0 L 60.796875 0 L 66.25 -44.1875 C 66.34375 -45 66.484375 -45.890625 66.671875 -46.859375 C 66.859375 -47.835938 67.0625 -48.828125 67.28125 -49.828125 L 43.953125 -11.078125 C 43.421875 -10.203125 42.753906 -9.539062 41.953125 -9.09375 C 41.160156 -8.65625 40.296875 -8.4375 39.359375 -8.4375 L 37.671875 -8.4375 C 36.734375 -8.4375 35.910156 -8.65625 35.203125 -9.09375 C 34.503906 -9.539062 34 -10.203125 33.6875 -11.078125 L 19.703125 -49.6875 C 19.671875 -48.71875 19.628906 -47.773438 19.578125 -46.859375 C 19.535156 -45.953125 19.46875 -45.125 19.375 -44.375 L 14.03125 0 L 3.28125 0 L 11.640625 -67.84375 L 20.78125 -67.84375 C 21.3125 -67.84375 21.78125 -67.828125 22.1875 -67.796875 C 22.59375 -67.765625 22.953125 -67.6875 23.265625 -67.5625 C 23.578125 -67.4375 23.84375 -67.238281 24.0625 -66.96875 C 24.28125 -66.707031 24.484375 -66.34375 24.671875 -65.875 Z M 38.703125 -27.109375 "/></g></g></g><g fill="#29cb41" fill-opacity="1"><g transform="translate(289.610625, 115.50736)"><g><path d="M 51.1875 -67.84375 L 49.96875 -58.125 L 22.65625 -58.125 L 20.3125 -38.84375 L 41.75 -38.84375 L 40.578125 -29.515625 L 19.140625 -29.515625 L 16.703125 -9.71875 L 44.09375 -9.71875 L 42.875 0 L 3.28125 0 L 11.640625 -67.84375 Z M 51.1875 -67.84375 "/></g></g></g><g fill="#29cb41" fill-opacity="1"><g transform="translate(342.954734, 115.50736)"><g><path d="M 18.015625 -67.84375 C 18.546875 -67.84375 18.988281 -67.816406 19.34375 -67.765625 C 19.707031 -67.722656 20.03125 -67.628906 20.3125 -67.484375 C 20.59375 -67.347656 20.84375 -67.15625 21.0625 -66.90625 C 21.28125 -66.65625 21.515625 -66.3125 21.765625 -65.875 L 48.1875 -19.5625 C 48.25 -20.46875 48.316406 -21.347656 48.390625 -22.203125 C 48.472656 -23.066406 48.5625 -23.875 48.65625 -24.625 L 53.953125 -67.84375 L 64.6875 -67.84375 L 56.296875 0 L 50.0625 0 C 49.125 0 48.320312 -0.144531 47.65625 -0.4375 C 47 -0.738281 46.453125 -1.296875 46.015625 -2.109375 L 19.75 -48.421875 C 19.6875 -47.671875 19.625 -46.941406 19.5625 -46.234375 C 19.5 -45.523438 19.4375 -44.859375 19.375 -44.234375 L 14.03125 0 L 3.28125 0 L 11.640625 -67.84375 Z M 18.015625 -67.84375 "/></g></g></g><g fill="#29cb41" fill-opacity="1"><g transform="translate(412.29721, 115.50736)"><g><path d="M 55.921875 -67.84375 L 54.65625 -57.84375 L 36.078125 -57.84375 L 28.953125 0 L 16.84375 0 L 23.921875 -57.84375 L 5.296875 -57.84375 L 6.515625 -67.84375 Z M 55.921875 -67.84375 "/></g></g></g><g fill="#29cb41" fill-opacity="1"><g transform="translate(467.752542, 115.50736)"><g/></g></g><g fill="#29cb41" fill-opacity="1"><g transform="translate(489.89748, 115.50736)"><g><path d="M 19 -26.734375 L 15.71875 0 L 3.609375 0 L 11.921875 -67.84375 L 31.203125 -67.84375 C 35.109375 -67.84375 38.453125 -67.425781 41.234375 -66.59375 C 44.015625 -65.757812 46.296875 -64.597656 48.078125 -63.109375 C 49.867188 -61.628906 51.1875 -59.859375 52.03125 -57.796875 C 52.875 -55.734375 53.296875 -53.46875 53.296875 -51 C 53.296875 -48.375 52.925781 -45.910156 52.1875 -43.609375 C 51.457031 -41.304688 50.40625 -39.21875 49.03125 -37.34375 C 47.65625 -35.46875 45.960938 -33.828125 43.953125 -32.421875 C 41.953125 -31.015625 39.6875 -29.921875 37.15625 -29.140625 C 37.875 -28.703125 38.53125 -28.164062 39.125 -27.53125 C 39.71875 -26.90625 40.234375 -26.15625 40.671875 -25.28125 L 52.78125 0 L 41.84375 0 C 40.8125 0 39.941406 -0.207031 39.234375 -0.625 C 38.535156 -1.050781 38.015625 -1.65625 37.671875 -2.4375 L 27.71875 -24.4375 C 27.34375 -25.25 26.878906 -25.832031 26.328125 -26.1875 C 25.785156 -26.550781 24.9375 -26.734375 23.78125 -26.734375 Z M 22.9375 -58.453125 L 20.078125 -35.421875 L 27.109375 -35.421875 C 29.554688 -35.421875 31.660156 -35.769531 33.421875 -36.46875 C 35.191406 -37.175781 36.644531 -38.144531 37.78125 -39.375 C 38.925781 -40.613281 39.78125 -42.0625 40.34375 -43.71875 C 40.90625 -45.375 41.1875 -47.160156 41.1875 -49.078125 C 41.1875 -52.015625 40.28125 -54.3125 38.46875 -55.96875 C 36.65625 -57.625 33.859375 -58.453125 30.078125 -58.453125 Z M 22.9375 -58.453125 "/></g></g></g><g fill="#29cb41" fill-opacity="1"><g transform="translate(550.654306, 115.50736)"><g><path d="M 51.1875 -67.84375 L 49.96875 -58.125 L 22.65625 -58.125 L 20.3125 -38.84375 L 41.75 -38.84375 L 40.578125 -29.515625 L 19.140625 -29.515625 L 16.703125 -9.71875 L 44.09375 -9.71875 L 42.875 0 L 3.28125 0 L 11.640625 -67.84375 Z M 51.1875 -67.84375 "/></g></g></g><g fill="#29cb41" fill-opacity="1"><g transform="translate(603.998442, 115.50736)"><g><path d="M 31.8125 -9.578125 C 33.71875 -9.578125 35.378906 -9.722656 36.796875 -10.015625 C 38.222656 -10.316406 39.457031 -10.703125 40.5 -11.171875 C 41.550781 -11.640625 42.453125 -12.128906 43.203125 -12.640625 C 43.953125 -13.160156 44.609375 -13.65625 45.171875 -14.125 C 45.734375 -14.59375 46.234375 -14.972656 46.671875 -15.265625 C 47.117188 -15.566406 47.5625 -15.71875 48 -15.71875 C 48.375 -15.71875 48.6875 -15.640625 48.9375 -15.484375 C 49.1875 -15.328125 49.390625 -15.171875 49.546875 -15.015625 L 53.8125 -9.71875 C 50.875 -6.332031 47.414062 -3.738281 43.4375 -1.9375 C 39.46875 -0.144531 34.90625 0.75 29.75 0.75 C 25.582031 0.75 21.875 0.0078125 18.625 -1.46875 C 15.375 -2.957031 12.617188 -5.015625 10.359375 -7.640625 C 8.109375 -10.273438 6.394531 -13.390625 5.21875 -16.984375 C 4.050781 -20.578125 3.46875 -24.503906 3.46875 -28.765625 C 3.46875 -32.671875 3.890625 -36.363281 4.734375 -39.84375 C 5.578125 -43.332031 6.78125 -46.554688 8.34375 -49.515625 C 9.914062 -52.472656 11.796875 -55.125 13.984375 -57.46875 C 16.171875 -59.8125 18.59375 -61.8125 21.25 -63.46875 C 23.90625 -65.132812 26.773438 -66.40625 29.859375 -67.28125 C 32.941406 -68.15625 36.15625 -68.59375 39.5 -68.59375 C 41.96875 -68.59375 44.21875 -68.363281 46.25 -67.90625 C 48.289062 -67.457031 50.140625 -66.820312 51.796875 -66 C 53.453125 -65.1875 54.9375 -64.207031 56.25 -63.0625 C 57.5625 -61.925781 58.75 -60.65625 59.8125 -59.25 L 55.59375 -54.1875 C 55.28125 -53.8125 54.910156 -53.484375 54.484375 -53.203125 C 54.066406 -52.921875 53.546875 -52.78125 52.921875 -52.78125 C 52.234375 -52.78125 51.578125 -53.0625 50.953125 -53.625 C 50.328125 -54.1875 49.535156 -54.800781 48.578125 -55.46875 C 47.628906 -56.144531 46.394531 -56.765625 44.875 -57.328125 C 43.351562 -57.890625 41.359375 -58.171875 38.890625 -58.171875 C 35.640625 -58.171875 32.617188 -57.503906 29.828125 -56.171875 C 27.046875 -54.847656 24.625 -52.945312 22.5625 -50.46875 C 20.5 -48 18.878906 -45.019531 17.703125 -41.53125 C 16.535156 -38.050781 15.953125 -34.140625 15.953125 -29.796875 C 15.953125 -26.628906 16.347656 -23.796875 17.140625 -21.296875 C 17.941406 -18.796875 19.046875 -16.675781 20.453125 -14.9375 C 21.859375 -13.207031 23.53125 -11.878906 25.46875 -10.953125 C 27.414062 -10.035156 29.53125 -9.578125 31.8125 -9.578125 Z M 31.8125 -9.578125 "/></g></g></g><g fill="#29cb41" fill-opacity="1"><g transform="translate(664.661461, 115.50736)"><g><path d="M 51.1875 -67.84375 L 49.96875 -58.125 L 22.65625 -58.125 L 20.3125 -38.84375 L 41.75 -38.84375 L 40.578125 -29.515625 L 19.140625 -29.515625 L 16.703125 -9.71875 L 44.09375 -9.71875 L 42.875 0 L 3.28125 0 L 11.640625 -67.84375 Z M 51.1875 -67.84375 "/></g></g></g><g fill="#29cb41" fill-opacity="1"><g transform="translate(718.005597, 115.50736)"><g><path d="M 16.890625 0 L 4.640625 0 L 12.953125 -67.84375 L 25.1875 -67.84375 Z M 16.890625 0 "/></g></g></g><g fill="#29cb41" fill-opacity="1"><g transform="translate(749.252277, 115.50736)"><g><path d="M 5.671875 -67.84375 L 15.4375 -67.84375 C 16.5 -67.84375 17.34375 -67.582031 17.96875 -67.0625 C 18.59375 -66.550781 18.984375 -65.882812 19.140625 -65.0625 L 28.203125 -22.796875 C 28.515625 -21.328125 28.8125 -19.847656 29.09375 -18.359375 C 29.375 -16.878906 29.640625 -15.296875 29.890625 -13.609375 C 30.421875 -15.296875 31.015625 -16.910156 31.671875 -18.453125 C 32.328125 -20.003906 32.96875 -21.453125 33.59375 -22.796875 L 52.875 -65.0625 C 53.1875 -65.757812 53.738281 -66.394531 54.53125 -66.96875 C 55.332031 -67.550781 56.234375 -67.84375 57.234375 -67.84375 L 67.09375 -67.84375 L 33.59375 0 L 22.515625 0 Z M 5.671875 -67.84375 "/></g></g></g><g fill="#29cb41" fill-opacity="1"><g transform="translate(815.029119, 115.50736)"><g><path d="M 51.1875 -67.84375 L 49.96875 -58.125 L 22.65625 -58.125 L 20.3125 -38.84375 L 41.75 -38.84375 L 40.578125 -29.515625 L 19.140625 -29.515625 L 16.703125 -9.71875 L 44.09375 -9.71875 L 42.875 0 L 3.28125 0 L 11.640625 -67.84375 Z M 51.1875 -67.84375 "/></g></g></g><g fill="#29cb41" fill-opacity="1"><g transform="translate(868.373255, 115.50736)"><g><path d="M 63.515625 -38.46875 C 63.515625 -32.84375 62.609375 -27.664062 60.796875 -22.9375 C 58.984375 -18.21875 56.457031 -14.160156 53.21875 -10.765625 C 49.988281 -7.367188 46.148438 -4.722656 41.703125 -2.828125 C 37.265625 -0.941406 32.414062 0 27.15625 0 L 3.28125 0 L 11.640625 -67.84375 L 35.5625 -67.84375 C 39.875 -67.84375 43.757812 -67.101562 47.21875 -65.625 C 50.675781 -64.15625 53.609375 -62.125 56.015625 -59.53125 C 58.421875 -56.9375 60.269531 -53.835938 61.5625 -50.234375 C 62.863281 -46.640625 63.515625 -42.71875 63.515625 -38.46875 Z M 51.046875 -38.1875 C 51.046875 -41.21875 50.671875 -43.96875 49.921875 -46.4375 C 49.171875 -48.914062 48.082031 -51.019531 46.65625 -52.75 C 45.226562 -54.488281 43.484375 -55.828125 41.421875 -56.765625 C 39.359375 -57.703125 37 -58.171875 34.34375 -58.171875 L 22.65625 -58.171875 L 16.703125 -9.71875 L 28.390625 -9.71875 C 31.796875 -9.71875 34.890625 -10.375 37.671875 -11.6875 C 40.453125 -13 42.835938 -14.878906 44.828125 -17.328125 C 46.816406 -19.785156 48.347656 -22.773438 49.421875 -26.296875 C 50.503906 -29.816406 51.046875 -33.78125 51.046875 -38.1875 Z M 51.046875 -38.1875 "/></g></g></g><g clip-path="url(#eb125999ee)"><path fill="#29cb41" d="M 1026.398438 142.574219 L 963.082031 67.664062 L 997.5 38.523438 L 1028.351562 74.996094 L 1092.34375 7.574219 L 1125.035156 38.671875 Z M 1026.398438 142.574219 " fill-opacity="1" fill-rule="nonzero"/></g></svg>