<svg xmlns="http://www.w3.org/2000/svg" xmlns:xlink="http://www.w3.org/1999/xlink" width="500" zoomAndPan="magnify" viewBox="0 0 375 149.999998" height="200" preserveAspectRatio="xMidYMid meet" version="1.0"><defs><g/><clipPath id="d5e7da6b5e"><path d="M 298.839844 45 L 370.839844 45 L 370.839844 105 L 298.839844 105 Z M 298.839844 45 " clip-rule="nonzero"/></clipPath></defs><g fill="#000000" fill-opacity="1"><g transform="translate(142.971904, 19.309543)"><g/></g></g><g fill="#29cb41" fill-opacity="1"><g transform="translate(3.099528, 87.580991)"><g><path d="M 5.734375 -7.375 L 4.828125 0 L 1.109375 0 L 3.65625 -20.828125 L 10 -20.828125 C 11.175781 -20.828125 12.1875 -20.6875 13.03125 -20.40625 C 13.882812 -20.125 14.585938 -19.726562 15.140625 -19.21875 C 15.691406 -18.707031 16.097656 -18.101562 16.359375 -17.40625 C 16.617188 -16.707031 16.75 -15.941406 16.75 -15.109375 C 16.75 -13.992188 16.570312 -12.960938 16.21875 -12.015625 C 15.875 -11.078125 15.347656 -10.265625 14.640625 -9.578125 C 13.941406 -8.890625 13.066406 -8.347656 12.015625 -7.953125 C 10.960938 -7.566406 9.738281 -7.375 8.34375 -7.375 Z M 7.046875 -17.953125 L 6.09375 -10.28125 L 8.71875 -10.28125 C 9.445312 -10.28125 10.078125 -10.390625 10.609375 -10.609375 C 11.148438 -10.835938 11.597656 -11.148438 11.953125 -11.546875 C 12.304688 -11.941406 12.566406 -12.410156 12.734375 -12.953125 C 12.910156 -13.503906 13 -14.113281 13 -14.78125 C 13 -15.25 12.929688 -15.679688 12.796875 -16.078125 C 12.660156 -16.472656 12.453125 -16.804688 12.171875 -17.078125 C 11.890625 -17.347656 11.539062 -17.5625 11.125 -17.71875 C 10.707031 -17.875 10.210938 -17.953125 9.640625 -17.953125 Z M 7.046875 -17.953125 "/></g></g></g><g fill="#29cb41" fill-opacity="1"><g transform="translate(20.977581, 87.580991)"><g><path d="M 17.828125 0 L 14.921875 0 C 14.597656 0 14.335938 -0.078125 14.140625 -0.234375 C 13.953125 -0.390625 13.832031 -0.59375 13.78125 -0.84375 L 12.921875 -5.203125 L 5.15625 -5.203125 L 3.234375 -0.84375 C 3.117188 -0.625 2.941406 -0.425781 2.703125 -0.25 C 2.460938 -0.0820312 2.195312 0 1.90625 0 L -1.03125 0 L 9.03125 -20.828125 L 12.84375 -20.828125 Z M 6.328125 -7.84375 L 12.390625 -7.84375 L 10.984375 -14.96875 C 10.898438 -15.3125 10.816406 -15.675781 10.734375 -16.0625 C 10.660156 -16.445312 10.59375 -16.878906 10.53125 -17.359375 C 10.34375 -16.878906 10.160156 -16.4375 9.984375 -16.03125 C 9.804688 -15.625 9.644531 -15.265625 9.5 -14.953125 Z M 6.328125 -7.84375 "/></g></g></g><g fill="#29cb41" fill-opacity="1"><g transform="translate(40.699604, 87.580991)"><g><path d="M 10.734375 -8.109375 L 9.71875 0 L 5.984375 0 L 6.984375 -8.125 L 1.5625 -20.828125 L 4.890625 -20.828125 C 5.222656 -20.828125 5.472656 -20.75 5.640625 -20.59375 C 5.816406 -20.4375 5.953125 -20.234375 6.046875 -19.984375 L 8.75 -12.78125 C 8.882812 -12.4375 8.988281 -12.097656 9.0625 -11.765625 C 9.144531 -11.429688 9.21875 -11.109375 9.28125 -10.796875 C 9.4375 -11.109375 9.601562 -11.425781 9.78125 -11.75 C 9.957031 -12.082031 10.15625 -12.425781 10.375 -12.78125 L 14.859375 -19.984375 C 14.984375 -20.203125 15.15625 -20.394531 15.375 -20.5625 C 15.59375 -20.738281 15.859375 -20.828125 16.171875 -20.828125 L 19.28125 -20.828125 Z M 10.734375 -8.109375 "/></g></g></g><g fill="#29cb41" fill-opacity="1"><g transform="translate(59.398799, 87.580991)"><g><path d="M 11.890625 -8.328125 C 11.972656 -8.078125 12.046875 -7.820312 12.109375 -7.5625 C 12.179688 -7.300781 12.25 -7.035156 12.3125 -6.765625 C 12.425781 -7.035156 12.550781 -7.300781 12.6875 -7.5625 C 12.820312 -7.820312 12.96875 -8.078125 13.125 -8.328125 L 20.359375 -20.21875 C 20.441406 -20.363281 20.53125 -20.476562 20.625 -20.5625 C 20.71875 -20.644531 20.8125 -20.703125 20.90625 -20.734375 C 21.007812 -20.773438 21.125 -20.800781 21.25 -20.8125 C 21.375 -20.820312 21.519531 -20.828125 21.6875 -20.828125 L 24.515625 -20.828125 L 21.953125 0 L 18.671875 0 L 20.34375 -13.578125 C 20.375 -13.816406 20.414062 -14.085938 20.46875 -14.390625 C 20.53125 -14.691406 20.59375 -14.992188 20.65625 -15.296875 L 13.5 -3.40625 C 13.332031 -3.132812 13.125 -2.929688 12.875 -2.796875 C 12.632812 -2.660156 12.375 -2.59375 12.09375 -2.59375 L 11.5625 -2.59375 C 11.28125 -2.59375 11.03125 -2.660156 10.8125 -2.796875 C 10.59375 -2.929688 10.4375 -3.132812 10.34375 -3.40625 L 6.046875 -15.25 C 6.035156 -14.957031 6.023438 -14.671875 6.015625 -14.390625 C 6.003906 -14.109375 5.984375 -13.851562 5.953125 -13.625 L 4.3125 0 L 1.015625 0 L 3.578125 -20.828125 L 6.375 -20.828125 C 6.539062 -20.828125 6.6875 -20.820312 6.8125 -20.8125 C 6.9375 -20.800781 7.046875 -20.773438 7.140625 -20.734375 C 7.242188 -20.703125 7.328125 -20.644531 7.390625 -20.5625 C 7.453125 -20.476562 7.515625 -20.363281 7.578125 -20.21875 Z M 11.890625 -8.328125 "/></g></g></g><g fill="#29cb41" fill-opacity="1"><g transform="translate(85.344225, 87.580991)"><g><path d="M 15.71875 -20.828125 L 15.34375 -17.84375 L 6.953125 -17.84375 L 6.234375 -11.921875 L 12.828125 -11.921875 L 12.46875 -9.0625 L 5.875 -9.0625 L 5.125 -2.984375 L 13.546875 -2.984375 L 13.171875 0 L 1.015625 0 L 3.578125 -20.828125 Z M 15.71875 -20.828125 "/></g></g></g><g fill="#29cb41" fill-opacity="1"><g transform="translate(101.724051, 87.580991)"><g><path d="M 5.53125 -20.828125 C 5.695312 -20.828125 5.832031 -20.816406 5.9375 -20.796875 C 6.050781 -20.785156 6.148438 -20.757812 6.234375 -20.71875 C 6.328125 -20.675781 6.40625 -20.613281 6.46875 -20.53125 C 6.53125 -20.457031 6.601562 -20.351562 6.6875 -20.21875 L 14.796875 -6 C 14.816406 -6.28125 14.835938 -6.550781 14.859375 -6.8125 C 14.878906 -7.082031 14.90625 -7.332031 14.9375 -7.5625 L 16.5625 -20.828125 L 19.859375 -20.828125 L 17.28125 0 L 15.375 0 C 15.082031 0 14.832031 -0.046875 14.625 -0.140625 C 14.425781 -0.234375 14.257812 -0.398438 14.125 -0.640625 L 6.0625 -14.875 C 6.039062 -14.632812 6.019531 -14.40625 6 -14.1875 C 5.988281 -13.976562 5.972656 -13.773438 5.953125 -13.578125 L 4.3125 0 L 1.015625 0 L 3.578125 -20.828125 Z M 5.53125 -20.828125 "/></g></g></g><g fill="#29cb41" fill-opacity="1"><g transform="translate(123.01633, 87.580991)"><g><path d="M 17.171875 -20.828125 L 16.78125 -17.765625 L 11.078125 -17.765625 L 8.890625 0 L 5.171875 0 L 7.34375 -17.765625 L 1.625 -17.765625 L 2 -20.828125 Z M 17.171875 -20.828125 "/></g></g></g><g fill="#29cb41" fill-opacity="1"><g transform="translate(140.044427, 87.580991)"><g/></g></g><g fill="#29cb41" fill-opacity="1"><g transform="translate(146.844245, 87.580991)"><g><path d="M 5.828125 -8.21875 L 4.828125 0 L 1.109375 0 L 3.65625 -20.828125 L 9.578125 -20.828125 C 10.773438 -20.828125 11.800781 -20.695312 12.65625 -20.4375 C 13.507812 -20.1875 14.210938 -19.832031 14.765625 -19.375 C 15.316406 -18.925781 15.71875 -18.382812 15.96875 -17.75 C 16.226562 -17.113281 16.359375 -16.414062 16.359375 -15.65625 C 16.359375 -14.851562 16.242188 -14.097656 16.015625 -13.390625 C 15.796875 -12.679688 15.472656 -12.039062 15.046875 -11.46875 C 14.628906 -10.894531 14.113281 -10.390625 13.5 -9.953125 C 12.882812 -9.523438 12.1875 -9.191406 11.40625 -8.953125 C 11.625 -8.816406 11.820312 -8.648438 12 -8.453125 C 12.1875 -8.265625 12.347656 -8.035156 12.484375 -7.765625 L 16.203125 0 L 12.84375 0 C 12.53125 0 12.265625 -0.0625 12.046875 -0.1875 C 11.835938 -0.320312 11.675781 -0.507812 11.5625 -0.75 L 8.515625 -7.5 C 8.398438 -7.75 8.257812 -7.929688 8.09375 -8.046875 C 7.925781 -8.160156 7.660156 -8.21875 7.296875 -8.21875 Z M 7.046875 -17.953125 L 6.171875 -10.875 L 8.328125 -10.875 C 9.078125 -10.875 9.722656 -10.984375 10.265625 -11.203125 C 10.804688 -11.421875 11.25 -11.71875 11.59375 -12.09375 C 11.945312 -12.46875 12.210938 -12.910156 12.390625 -13.421875 C 12.566406 -13.929688 12.65625 -14.476562 12.65625 -15.0625 C 12.65625 -15.96875 12.375 -16.675781 11.8125 -17.1875 C 11.257812 -17.695312 10.398438 -17.953125 9.234375 -17.953125 Z M 7.046875 -17.953125 "/></g></g></g><g fill="#29cb41" fill-opacity="1"><g transform="translate(165.500217, 87.580991)"><g><path d="M 15.71875 -20.828125 L 15.34375 -17.84375 L 6.953125 -17.84375 L 6.234375 -11.921875 L 12.828125 -11.921875 L 12.46875 -9.0625 L 5.875 -9.0625 L 5.125 -2.984375 L 13.546875 -2.984375 L 13.171875 0 L 1.015625 0 L 3.578125 -20.828125 Z M 15.71875 -20.828125 "/></g></g></g><g fill="#29cb41" fill-opacity="1"><g transform="translate(181.880051, 87.580991)"><g><path d="M 9.765625 -2.9375 C 10.347656 -2.9375 10.859375 -2.984375 11.296875 -3.078125 C 11.734375 -3.171875 12.113281 -3.285156 12.4375 -3.421875 C 12.757812 -3.566406 13.035156 -3.71875 13.265625 -3.875 C 13.492188 -4.039062 13.691406 -4.191406 13.859375 -4.328125 C 14.035156 -4.472656 14.191406 -4.59375 14.328125 -4.6875 C 14.460938 -4.78125 14.597656 -4.828125 14.734375 -4.828125 C 14.847656 -4.828125 14.941406 -4.800781 15.015625 -4.75 C 15.097656 -4.707031 15.164062 -4.660156 15.21875 -4.609375 L 16.53125 -2.984375 C 15.625 -1.941406 14.5625 -1.144531 13.34375 -0.59375 C 12.125 -0.0390625 10.722656 0.234375 9.140625 0.234375 C 7.859375 0.234375 6.71875 0.00390625 5.71875 -0.453125 C 4.71875 -0.910156 3.867188 -1.539062 3.171875 -2.34375 C 2.484375 -3.15625 1.957031 -4.113281 1.59375 -5.21875 C 1.238281 -6.320312 1.0625 -7.523438 1.0625 -8.828125 C 1.0625 -10.023438 1.191406 -11.160156 1.453125 -12.234375 C 1.710938 -13.304688 2.082031 -14.296875 2.5625 -15.203125 C 3.039062 -16.109375 3.613281 -16.921875 4.28125 -17.640625 C 4.957031 -18.367188 5.703125 -18.984375 6.515625 -19.484375 C 7.335938 -19.992188 8.222656 -20.382812 9.171875 -20.65625 C 10.117188 -20.925781 11.101562 -21.0625 12.125 -21.0625 C 12.882812 -21.0625 13.578125 -20.988281 14.203125 -20.84375 C 14.828125 -20.707031 15.394531 -20.515625 15.90625 -20.265625 C 16.414062 -20.015625 16.867188 -19.710938 17.265625 -19.359375 C 17.671875 -19.015625 18.039062 -18.625 18.375 -18.1875 L 17.078125 -16.640625 C 16.972656 -16.523438 16.851562 -16.421875 16.71875 -16.328125 C 16.59375 -16.242188 16.4375 -16.203125 16.25 -16.203125 C 16.039062 -16.203125 15.835938 -16.285156 15.640625 -16.453125 C 15.453125 -16.628906 15.210938 -16.820312 14.921875 -17.03125 C 14.628906 -17.238281 14.25 -17.425781 13.78125 -17.59375 C 13.3125 -17.769531 12.695312 -17.859375 11.9375 -17.859375 C 10.9375 -17.859375 10.007812 -17.65625 9.15625 -17.25 C 8.300781 -16.84375 7.554688 -16.257812 6.921875 -15.5 C 6.296875 -14.738281 5.800781 -13.820312 5.4375 -12.75 C 5.070312 -11.6875 4.890625 -10.484375 4.890625 -9.140625 C 4.890625 -8.171875 5.015625 -7.300781 5.265625 -6.53125 C 5.515625 -5.769531 5.851562 -5.117188 6.28125 -4.578125 C 6.707031 -4.046875 7.21875 -3.640625 7.8125 -3.359375 C 8.414062 -3.078125 9.066406 -2.9375 9.765625 -2.9375 Z M 9.765625 -2.9375 "/></g></g></g><g fill="#29cb41" fill-opacity="1"><g transform="translate(200.507218, 87.580991)"><g><path d="M 15.71875 -20.828125 L 15.34375 -17.84375 L 6.953125 -17.84375 L 6.234375 -11.921875 L 12.828125 -11.921875 L 12.46875 -9.0625 L 5.875 -9.0625 L 5.125 -2.984375 L 13.546875 -2.984375 L 13.171875 0 L 1.015625 0 L 3.578125 -20.828125 Z M 15.71875 -20.828125 "/></g></g></g><g fill="#29cb41" fill-opacity="1"><g transform="translate(216.887052, 87.580991)"><g><path d="M 5.1875 0 L 1.421875 0 L 3.96875 -20.828125 L 7.734375 -20.828125 Z M 5.1875 0 "/></g></g></g><g fill="#29cb41" fill-opacity="1"><g transform="translate(226.481648, 87.580991)"><g><path d="M 1.75 -20.828125 L 4.734375 -20.828125 C 5.066406 -20.828125 5.328125 -20.75 5.515625 -20.59375 C 5.710938 -20.4375 5.832031 -20.234375 5.875 -19.984375 L 8.65625 -7 C 8.75 -6.550781 8.835938 -6.097656 8.921875 -5.640625 C 9.015625 -5.179688 9.097656 -4.691406 9.171875 -4.171875 C 9.335938 -4.691406 9.519531 -5.1875 9.71875 -5.65625 C 9.925781 -6.132812 10.125 -6.582031 10.3125 -7 L 16.234375 -19.984375 C 16.328125 -20.191406 16.492188 -20.382812 16.734375 -20.5625 C 16.984375 -20.738281 17.265625 -20.828125 17.578125 -20.828125 L 20.59375 -20.828125 L 10.3125 0 L 6.921875 0 Z M 1.75 -20.828125 "/></g></g></g><g fill="#29cb41" fill-opacity="1"><g transform="translate(246.679065, 87.580991)"><g><path d="M 15.71875 -20.828125 L 15.34375 -17.84375 L 6.953125 -17.84375 L 6.234375 -11.921875 L 12.828125 -11.921875 L 12.46875 -9.0625 L 5.875 -9.0625 L 5.125 -2.984375 L 13.546875 -2.984375 L 13.171875 0 L 1.015625 0 L 3.578125 -20.828125 Z M 15.71875 -20.828125 "/></g></g></g><g fill="#29cb41" fill-opacity="1"><g transform="translate(263.058899, 87.580991)"><g><path d="M 19.5 -11.8125 C 19.5 -10.082031 19.21875 -8.492188 18.65625 -7.046875 C 18.101562 -5.597656 17.332031 -4.351562 16.34375 -3.3125 C 15.351562 -2.269531 14.175781 -1.457031 12.8125 -0.875 C 11.445312 -0.289062 9.957031 0 8.34375 0 L 1.015625 0 L 3.578125 -20.828125 L 10.921875 -20.828125 C 12.242188 -20.828125 13.4375 -20.601562 14.5 -20.15625 C 15.5625 -19.707031 16.460938 -19.082031 17.203125 -18.28125 C 17.941406 -17.476562 18.507812 -16.523438 18.90625 -15.421875 C 19.300781 -14.316406 19.5 -13.113281 19.5 -11.8125 Z M 15.671875 -11.734375 C 15.671875 -12.660156 15.554688 -13.503906 15.328125 -14.265625 C 15.097656 -15.023438 14.765625 -15.671875 14.328125 -16.203125 C 13.890625 -16.734375 13.351562 -17.140625 12.71875 -17.421875 C 12.082031 -17.710938 11.359375 -17.859375 10.546875 -17.859375 L 6.953125 -17.859375 L 5.125 -2.984375 L 8.71875 -2.984375 C 9.757812 -2.984375 10.707031 -3.179688 11.5625 -3.578125 C 12.414062 -3.984375 13.148438 -4.5625 13.765625 -5.3125 C 14.378906 -6.070312 14.847656 -6.992188 15.171875 -8.078125 C 15.503906 -9.160156 15.671875 -10.378906 15.671875 -11.734375 Z M 15.671875 -11.734375 "/></g></g></g><g clip-path="url(#d5e7da6b5e)"><path fill="#29cb41" d="M 326.992188 105 L 298.847656 71.707031 L 314.148438 58.753906 L 327.859375 74.964844 L 356.304688 45 L 370.835938 58.820312 Z M 326.992188 105 " fill-opacity="1" fill-rule="nonzero"/></g></svg>